<svg width="62" height="62" viewBox="0 0 62 62" fill="none" xmlns="http://www.w3.org/2000/svg">
<circle cx="31" cy="31" r="30.5" fill="white" stroke="#CBCBCB"/>
<path d="M20.9443 37H18.7773L18.791 35.4004H20.9443C21.4821 35.4004 21.9355 35.2796 22.3047 35.0381C22.6738 34.792 22.9518 34.4342 23.1387 33.9648C23.3301 33.4954 23.4258 32.9281 23.4258 32.2627V31.7773C23.4258 31.2669 23.3711 30.818 23.2617 30.4307C23.1569 30.0433 22.9997 29.7174 22.79 29.4531C22.5804 29.1888 22.3229 28.9906 22.0176 28.8584C21.7122 28.7217 21.3613 28.6533 20.9648 28.6533H18.7363V27.0469H20.9648C21.6302 27.0469 22.2386 27.1608 22.79 27.3887C23.346 27.612 23.8268 27.9333 24.2324 28.3525C24.638 28.7718 24.9502 29.2731 25.1689 29.8564C25.3923 30.4352 25.5039 31.0801 25.5039 31.791V32.2627C25.5039 32.9691 25.3923 33.6139 25.1689 34.1973C24.9502 34.7806 24.638 35.2819 24.2324 35.7012C23.8314 36.1159 23.3506 36.4372 22.79 36.665C22.234 36.8883 21.6188 37 20.9443 37ZM19.9395 27.0469V37H17.8887V27.0469H19.9395ZM30.8906 28.749L28.1836 37H26.0029L29.7012 27.0469H31.0889L30.8906 28.749ZM33.1396 37L30.4258 28.749L30.207 27.0469H31.6084L35.3271 37H33.1396ZM33.0166 33.2949V34.9014H27.7598V33.2949H33.0166ZM36.7148 27.0469L38.793 31.5859L40.8711 27.0469H43.1064L39.832 33.377V37H37.7539V33.377L34.4727 27.0469H36.7148Z" fill="#C8C8C8"/>
</svg>
