<svg width="24" height="24" viewBox="0 0 24 24" fill="none" xmlns="http://www.w3.org/2000/svg">
<path d="M18.9884 6.0131C19.5374 6.0131 19.9867 6.46226 19.9867 7.01123V18.9888C19.9867 19.5377 19.5374 19.9869 18.9884 19.9869H5.01165C4.46256 19.9869 4.01331 19.5377 4.01331 18.9888V7.01123C4.01331 6.46226 4.46256 6.0131 5.01165 6.0131H18.9884ZM18.9884 5H5.01165C3.90349 5 3 5.90331 3 7.01123V18.9888C3 20.0967 3.90349 21 5.01165 21H18.9884C20.0965 21 21 20.0967 21 18.9888V7.01123C21 5.90331 20.0965 5 18.9884 5Z" fill="#2E2E2E"/>
<path d="M7.875 3H7.125C6.77982 3 6.5 3.27982 6.5 3.625V5.875C6.5 6.22018 6.77982 6.5 7.125 6.5H7.875C8.22018 6.5 8.5 6.22018 8.5 5.875V3.625C8.5 3.27982 8.22018 3 7.875 3Z" fill="#2E2E2E"/>
<path d="M16.875 3H16.125C15.7798 3 15.5 3.27982 15.5 3.625V5.875C15.5 6.22018 15.7798 6.5 16.125 6.5H16.875C17.2202 6.5 17.5 6.22018 17.5 5.875V3.625C17.5 3.27982 17.2202 3 16.875 3Z" fill="#2E2E2E"/>
<path d="M5.58 5.5H18.425C19.57 5.5 20.505 6.43 20.505 7.58V10H3.5V7.58C3.5 6.435 4.43 5.5 5.58 5.5Z" fill="#2E2E2E"/>
<path d="M7.35 11H5.65C5.29101 11 5 11.291 5 11.65V13.35C5 13.709 5.29101 14 5.65 14H7.35C7.70899 14 8 13.709 8 13.35V11.65C8 11.291 7.70899 11 7.35 11Z" fill="#2E2E2E"/>
<path d="M7.35 15.5H5.65C5.29101 15.5 5 15.791 5 16.15V17.85C5 18.209 5.29101 18.5 5.65 18.5H7.35C7.70899 18.5 8 18.209 8 17.85V16.15C8 15.791 7.70899 15.5 7.35 15.5Z" fill="#2E2E2E"/>
<path d="M12.85 11H11.15C10.791 11 10.5 11.291 10.5 11.65V13.35C10.5 13.709 10.791 14 11.15 14H12.85C13.209 14 13.5 13.709 13.5 13.35V11.65C13.5 11.291 13.209 11 12.85 11Z" fill="#2E2E2E"/>
<path d="M18.35 11H16.65C16.291 11 16 11.291 16 11.65V13.35C16 13.709 16.291 14 16.65 14H18.35C18.709 14 19 13.709 19 13.35V11.65C19 11.291 18.709 11 18.35 11Z" fill="#2E2E2E"/>
</svg>
