<svg width="32" height="32" viewBox="0 0 32 32" fill="none" xmlns="http://www.w3.org/2000/svg">
<mask id="path-1-inside-1_690_117" fill="white">
<path d="M16 5.33329C18.58 5.33329 20.6666 7.41996 20.6666 9.99996C20.6666 12.58 18.58 14.6666 16 14.6666C13.42 14.6666 11.3333 12.58 11.3333 9.99996C11.3333 7.41996 13.42 5.33329 16 5.33329ZM16 4.45996C12.9466 4.45996 10.46 6.94663 10.46 9.99996C10.46 13.0533 12.9466 15.54 16 15.54C19.0533 15.54 21.54 13.0533 21.54 9.99996C21.54 6.94663 19.0533 4.45996 16 4.45996Z"/>
</mask>
<path d="M16 5.33329C18.58 5.33329 20.6666 7.41996 20.6666 9.99996C20.6666 12.58 18.58 14.6666 16 14.6666C13.42 14.6666 11.3333 12.58 11.3333 9.99996C11.3333 7.41996 13.42 5.33329 16 5.33329ZM16 4.45996C12.9466 4.45996 10.46 6.94663 10.46 9.99996C10.46 13.0533 12.9466 15.54 16 15.54C19.0533 15.54 21.54 13.0533 21.54 9.99996C21.54 6.94663 19.0533 4.45996 16 4.45996Z" fill="#CBCBCB"/>
<path d="M16 6.33329C18.0277 6.33329 19.6666 7.97225 19.6666 9.99996H21.6666C21.6666 6.86768 19.1322 4.33329 16 4.33329V6.33329ZM19.6666 9.99996C19.6666 12.0277 18.0277 13.6666 16 13.6666V15.6666C19.1322 15.6666 21.6666 13.1322 21.6666 9.99996H19.6666ZM16 13.6666C13.9722 13.6666 12.3333 12.0277 12.3333 9.99996H10.3333C10.3333 13.1322 12.8677 15.6666 16 15.6666V13.6666ZM12.3333 9.99996C12.3333 7.97225 13.9722 6.33329 16 6.33329V4.33329C12.8677 4.33329 10.3333 6.86768 10.3333 9.99996H12.3333ZM16 3.45996C12.3943 3.45996 9.45996 6.39434 9.45996 9.99996H11.46C11.46 7.49891 13.4989 5.45996 16 5.45996V3.45996ZM9.45996 9.99996C9.45996 13.6056 12.3943 16.54 16 16.54V14.54C13.4989 14.54 11.46 12.501 11.46 9.99996H9.45996ZM16 16.54C19.6056 16.54 22.54 13.6056 22.54 9.99996H20.54C20.54 12.501 18.501 14.54 16 14.54V16.54ZM22.54 9.99996C22.54 6.39434 19.6056 3.45996 16 3.45996V5.45996C18.501 5.45996 20.54 7.49891 20.54 9.99996H22.54Z" fill="#CBCBCB" mask="url(#path-1-inside-1_690_117)"/>
<mask id="path-3-inside-2_690_117" fill="white">
<path d="M19.2467 17.3334C19.3133 17.3334 19.38 17.3467 19.44 17.3734C23.0133 18.8534 25.64 21.4667 25.9933 25.9267C26.0267 26.32 25.7533 26.6667 25.4 26.6667H6.59334C6.24 26.6667 5.97334 26.32 6 25.9267C6.35334 21.4667 8.97334 18.8534 12.5533 17.3734C12.62 17.3467 12.68 17.3334 12.7467 17.3334C12.82 17.3334 12.8933 17.3467 12.96 17.38C13.88 17.7734 14.9067 17.9934 15.9933 17.9934C17.08 17.9934 18.1067 17.7667 19.0267 17.38C19.0933 17.3534 19.1667 17.3334 19.24 17.3334M19.2467 16.3534C19.04 16.3534 18.84 16.3934 18.6467 16.48C17.8133 16.8334 16.92 17.02 16 17.02C15.08 17.02 14.1867 16.84 13.3533 16.48C13.16 16.4 12.96 16.3534 12.7533 16.3534C12.5467 16.3534 12.3667 16.3934 12.18 16.4667C7.78 18.2867 5.37334 21.44 5.02667 25.8467C4.98667 26.3267 5.14667 26.8 5.46667 27.1467C5.76667 27.4667 6.16667 27.6467 6.59334 27.6467H25.4067C25.8333 27.6467 26.2333 27.4667 26.5333 27.1467C26.8533 26.8 27.0133 26.3267 26.9733 25.8467C26.6267 21.44 24.22 18.28 19.82 16.4667C19.64 16.3934 19.4467 16.3534 19.2467 16.3534Z"/>
</mask>
<path d="M19.2467 17.3334C19.3133 17.3334 19.38 17.3467 19.44 17.3734C23.0133 18.8534 25.64 21.4667 25.9933 25.9267C26.0267 26.32 25.7533 26.6667 25.4 26.6667H6.59334C6.24 26.6667 5.97334 26.32 6 25.9267C6.35334 21.4667 8.97334 18.8534 12.5533 17.3734C12.62 17.3467 12.68 17.3334 12.7467 17.3334C12.82 17.3334 12.8933 17.3467 12.96 17.38C13.88 17.7734 14.9067 17.9934 15.9933 17.9934C17.08 17.9934 18.1067 17.7667 19.0267 17.38C19.0933 17.3534 19.1667 17.3334 19.24 17.3334M19.2467 16.3534C19.04 16.3534 18.84 16.3934 18.6467 16.48C17.8133 16.8334 16.92 17.02 16 17.02C15.08 17.02 14.1867 16.84 13.3533 16.48C13.16 16.4 12.96 16.3534 12.7533 16.3534C12.5467 16.3534 12.3667 16.3934 12.18 16.4667C7.78 18.2867 5.37334 21.44 5.02667 25.8467C4.98667 26.3267 5.14667 26.8 5.46667 27.1467C5.76667 27.4667 6.16667 27.6467 6.59334 27.6467H25.4067C25.8333 27.6467 26.2333 27.4667 26.5333 27.1467C26.8533 26.8 27.0133 26.3267 26.9733 25.8467C26.6267 21.44 24.22 18.28 19.82 16.4667C19.64 16.3934 19.4467 16.3534 19.2467 16.3534Z" fill="#CBCBCB"/>
<path d="M19.44 17.3734L19.0339 18.2872L19.0455 18.2924L19.0573 18.2973L19.44 17.3734ZM25.9933 25.9267L24.9964 26.0057L24.9969 26.0111L25.9933 25.9267ZM6 25.9267L5.00306 25.8477L5.00229 25.8591L6 25.9267ZM12.5533 17.3734L12.1819 16.4448L12.1713 16.4492L12.5533 17.3734ZM12.96 17.38L12.5128 18.2745L12.5395 18.2878L12.5669 18.2995L12.96 17.38ZM19.0267 17.38L18.6553 16.4516L18.6472 16.4548L18.6392 16.4581L19.0267 17.38ZM18.6467 16.48L19.037 17.4007L19.0464 17.3967L19.0557 17.3925L18.6467 16.48ZM13.3533 16.48L13.7499 15.562L13.7428 15.559L13.7357 15.556L13.3533 16.48ZM12.18 16.4667L11.8144 15.5359L11.806 15.5392L11.7978 15.5426L12.18 16.4667ZM5.02667 25.8467L6.02323 25.9297L6.02359 25.9251L5.02667 25.8467ZM5.46667 27.1467L4.73185 27.825L4.73713 27.8306L5.46667 27.1467ZM26.5333 27.1467L27.2629 27.8307L27.2681 27.825L26.5333 27.1467ZM26.9733 25.8467L25.9764 25.9251L25.9768 25.9297L26.9733 25.8467ZM19.82 16.4667L20.201 15.5421L20.1973 15.5406L19.82 16.4667ZM19.2467 18.3334C19.1828 18.3334 19.1101 18.321 19.0339 18.2872L19.8461 16.4596C19.65 16.3724 19.4439 16.3334 19.2467 16.3334V18.3334ZM19.0573 18.2973C20.735 18.9921 22.1343 19.93 23.1517 21.1676C24.1612 22.3956 24.8349 23.9666 24.9965 26.0057L26.9902 25.8477C26.7984 23.4268 25.9821 21.4611 24.6966 19.8975C23.4191 18.3434 21.7184 17.2346 19.8227 16.4495L19.0573 18.2973ZM24.9969 26.0111C24.9922 25.9555 25.0073 25.8866 25.0599 25.8207C25.1145 25.7521 25.2319 25.6667 25.4 25.6667V27.6667C26.4721 27.6667 27.0606 26.6776 26.9898 25.8423L24.9969 26.0111ZM25.4 25.6667H6.59334V27.6667H25.4V25.6667ZM6.59334 25.6667C6.76414 25.6667 6.88372 25.7546 6.93831 25.8236C6.98945 25.8882 7.00071 25.9502 6.99771 25.9943L5.00229 25.8591C4.94771 26.6641 5.50715 27.6667 6.59334 27.6667V25.6667ZM6.99688 26.0057C7.15847 23.966 7.83081 22.395 8.83937 21.1673C9.85575 19.9301 11.2547 18.9923 12.9354 18.2975L12.1713 16.4492C10.272 17.2344 8.57093 18.3433 7.29397 19.8978C6.0092 21.4617 5.19488 23.4274 5.00313 25.8477L6.99688 26.0057ZM12.9247 18.3018C12.9151 18.3057 12.891 18.3146 12.856 18.3219C12.8196 18.3296 12.7823 18.3334 12.7467 18.3334V16.3334C12.5304 16.3334 12.344 16.3801 12.1819 16.4449L12.9247 18.3018ZM12.7467 18.3334C12.7016 18.3334 12.6145 18.3253 12.5128 18.2745L13.4072 16.4856C13.1721 16.3681 12.9384 16.3334 12.7467 16.3334V18.3334ZM12.5669 18.2995C13.6106 18.7457 14.7709 18.9934 15.9933 18.9934V16.9934C15.0424 16.9934 14.1494 16.801 13.3531 16.4605L12.5669 18.2995ZM15.9933 18.9934C17.2199 18.9934 18.3779 18.7374 19.4141 18.3019L18.6392 16.4581C17.8354 16.796 16.9401 16.9934 15.9933 16.9934V18.9934ZM19.3981 18.3085C19.3951 18.3097 19.381 18.3152 19.3574 18.3207C19.3337 18.3262 19.2934 18.3334 19.24 18.3334V16.3334C18.9927 16.3334 18.7871 16.3988 18.6553 16.4516L19.3981 18.3085ZM19.2467 15.3534C18.9064 15.3534 18.5661 15.4202 18.2376 15.5675L19.0557 17.3925C19.1139 17.3665 19.1737 17.3534 19.2467 17.3534V15.3534ZM18.2563 15.5594C17.544 15.8614 16.7832 16.02 16 16.02V18.02C17.0568 18.02 18.0827 17.8053 19.037 17.4007L18.2563 15.5594ZM16 16.02C15.212 16.02 14.454 15.8662 13.7499 15.562L12.9568 17.398C13.9193 17.8139 14.948 18.02 16 18.02V16.02ZM13.7357 15.556C13.4437 15.4352 13.1136 15.3534 12.7533 15.3534V17.3534C12.8064 17.3534 12.8764 17.3649 12.971 17.404L13.7357 15.556ZM12.7533 15.3534C12.4037 15.3534 12.0997 15.4239 11.8144 15.5359L12.5457 17.3974C12.6337 17.3629 12.6896 17.3534 12.7533 17.3534V15.3534ZM11.7978 15.5426C9.46797 16.5063 7.6104 17.8468 6.28824 19.5802C4.96318 21.3174 4.21634 23.3965 4.02975 25.7683L6.02359 25.9251C6.18367 23.8903 6.8135 22.1893 7.87844 20.7932C8.94628 19.3932 10.492 18.2471 12.5622 17.3908L11.7978 15.5426ZM4.03012 25.7637C3.96745 26.5158 4.21701 27.2672 4.73187 27.825L6.20147 26.4684C6.07633 26.3328 6.00589 26.1376 6.02322 25.9297L4.03012 25.7637ZM4.73713 27.8306C5.21591 28.3413 5.8756 28.6467 6.59334 28.6467V26.6467C6.45774 26.6467 6.31743 26.5921 6.19621 26.4628L4.73713 27.8306ZM6.59334 28.6467H25.4067V26.6467H6.59334V28.6467ZM25.4067 28.6467C26.1244 28.6467 26.7841 28.3413 27.2629 27.8306L25.8038 26.4628C25.6826 26.5921 25.5423 26.6467 25.4067 26.6467V28.6467ZM27.2681 27.825C27.783 27.2672 28.0326 26.5158 27.9699 25.7637L25.9768 25.9297C25.9941 26.1376 25.9237 26.3328 25.7985 26.4684L27.2681 27.825ZM27.9703 25.7683C27.7837 23.3966 27.0369 21.3159 25.7119 19.5779C24.3897 17.8435 22.5318 16.5027 20.201 15.5421L19.439 17.3913C21.5082 18.244 23.0536 19.3899 24.1214 20.7905C25.1864 22.1874 25.8163 23.8901 25.9764 25.9251L27.9703 25.7683ZM20.1973 15.5406C19.9025 15.4205 19.5814 15.3534 19.2467 15.3534V17.3534C19.312 17.3534 19.3775 17.3662 19.4427 17.3928L20.1973 15.5406Z" fill="#CBCBCB" mask="url(#path-3-inside-2_690_117)"/>
</svg>
