<svg width="141" height="169" viewBox="0 0 141 169" fill="none" xmlns="http://www.w3.org/2000/svg">
<g filter="url(#filter0_f_752_158)">
<rect x="59.958" y="49.6246" width="63.86" height="87.5599" rx="20" transform="rotate(13.8883 59.958 49.6246)" fill="#5CD8FF"/>
</g>
<g filter="url(#filter1_f_752_158)">
<rect x="27.5083" y="21" width="63.86" height="87.5599" rx="20" transform="rotate(3.94749 27.5083 21)" fill="#AFECFF"/>
</g>
<g clip-path="url(#clip0_752_158)">
<path d="M109.415 57.2715L54.766 43.8607C52.6799 43.3488 50.5728 44.6161 50.0598 46.6912L30.8818 124.259C30.3688 126.334 31.644 128.432 33.7301 128.944L88.3787 142.354C90.4648 142.866 92.5718 141.599 93.0849 139.524L112.263 61.9558C112.776 59.8807 111.501 57.7834 109.415 57.2715Z" fill="url(#paint0_linear_752_158)"/>
<path d="M108.398 55.8196L53.7489 42.4089C51.6628 41.897 49.5558 43.1642 49.0427 45.2394L29.8647 122.807C29.3517 124.883 30.6269 126.98 32.713 127.492L87.3616 140.902C89.4477 141.414 91.5547 140.147 92.0678 138.072L111.246 60.504C111.759 58.4288 110.484 56.3315 108.398 55.8196Z" fill="url(#paint1_linear_752_158)"/>
<path d="M100.984 59.476L49.5381 46.8513C47.6439 46.3865 45.7307 47.5371 45.2649 49.4214L28.4689 117.355C28.003 119.24 29.1609 121.144 31.055 121.609L82.5006 134.233C84.3948 134.698 86.3079 133.548 86.7738 131.663L103.57 63.7294C104.036 61.8451 102.878 59.9408 100.984 59.476Z" fill="url(#paint2_linear_752_158)"/>
<path d="M99.7741 58.8647L48.3194 46.2368C46.4181 45.7642 44.5135 46.9207 44.0398 48.8121L30.7798 102.423L25.0591 101.019C24.6453 100.913 24.2226 101.163 24.1162 101.575L22.3184 108.868C20.9767 114.299 24.2332 119.768 29.6049 121.256C29.6515 121.26 29.6959 121.294 29.7569 121.313L29.91 121.355L73.5275 132.061L81.2116 133.941C83.113 134.414 85.0175 133.257 85.4912 131.366L102.365 63.1244C102.839 61.233 101.675 59.3373 99.7741 58.8647Z" fill="url(#paint3_linear_752_158)"/>
<path d="M82.0402 134.138L82.2699 134.2C77.1317 132.946 74.318 126.483 75.9666 119.769L90.6122 60.5445C91.0265 58.8352 92.4291 57.7217 93.7325 58.0444L100.664 59.7485C101.968 60.0712 102.682 61.7032 102.268 63.4125L85.3912 131.685C84.9769 133.394 83.3437 134.461 82.0402 134.138Z" fill="url(#paint4_linear_752_158)"/>
<path d="M48.1077 46.5025L97.8913 58.7193C100.294 59.3089 101.763 61.726 101.172 64.1157L88.2224 116.494L30.7937 102.401L44.0039 48.9707C44.4498 47.1671 46.2946 46.0576 48.1077 46.5025Z" fill="url(#paint5_linear_752_158)"/>
<path d="M79.4854 61.0351L41.9249 51.8178C40.4897 51.4656 39.0409 52.3341 38.6889 53.7576C38.3369 55.1812 39.2151 56.6207 40.6503 56.9729L78.2109 66.1903C79.6461 66.5425 81.0949 65.674 81.4469 64.2504C81.7988 62.8269 80.9206 61.3873 79.4854 61.0351Z" fill="url(#paint6_linear_752_158)"/>
<path d="M70.4473 69.7688L39.3685 62.1421C37.9333 61.7899 36.4845 62.6584 36.1325 64.0819C35.7805 65.5055 36.6587 66.945 38.0939 67.2972L69.1728 74.924C70.608 75.2762 72.0568 74.4077 72.4088 72.9841C72.7607 71.5605 71.8826 70.121 70.4473 69.7688Z" fill="url(#paint7_linear_752_158)"/>
<path d="M74.3863 81.652L36.8258 72.4347C35.3905 72.0825 33.9417 72.951 33.5898 74.3746C33.2378 75.7981 34.116 77.2377 35.5512 77.5899L73.1117 86.8072C74.547 87.1594 75.9958 86.2909 76.3477 84.8674C76.6997 83.4438 75.8215 82.0043 74.3863 81.652Z" fill="url(#paint8_linear_752_158)"/>
<path d="M87.2171 55.05L92.8053 64.2491L107.138 52.7317" stroke="url(#paint9_linear_752_158)" stroke-width="4" stroke-linecap="round" stroke-linejoin="round"/>
</g>
<defs>
<filter id="filter0_f_752_158" x="20.8523" y="31.5359" width="119.188" height="136.506" filterUnits="userSpaceOnUse" color-interpolation-filters="sRGB">
<feFlood flood-opacity="0" result="BackgroundImageFix"/>
<feBlend mode="normal" in="SourceGraphic" in2="BackgroundImageFix" result="shape"/>
<feGaussianBlur stdDeviation="11.15" result="effect1_foregroundBlur_752_158"/>
</filter>
<filter id="filter1_f_752_158" x="0.509083" y="0.0285835" width="111.679" height="133.691" filterUnits="userSpaceOnUse" color-interpolation-filters="sRGB">
<feFlood flood-opacity="0" result="BackgroundImageFix"/>
<feBlend mode="normal" in="SourceGraphic" in2="BackgroundImageFix" result="shape"/>
<feGaussianBlur stdDeviation="11.15" result="effect1_foregroundBlur_752_158"/>
</filter>
<linearGradient id="paint0_linear_752_158" x1="98.6246" y1="140.517" x2="49.0118" y2="52.6339" gradientUnits="userSpaceOnUse">
<stop stop-color="#3B74A0"/>
<stop offset="0.27" stop-color="#348FBD"/>
<stop offset="0.76" stop-color="#2ABBEC"/>
<stop offset="1" stop-color="#26CCFF"/>
</linearGradient>
<linearGradient id="paint1_linear_752_158" x1="10.3965" y1="120.852" x2="101.197" y2="76.2872" gradientUnits="userSpaceOnUse">
<stop stop-color="#4F98D3"/>
<stop offset="0.33" stop-color="#4C9AD5"/>
<stop offset="0.58" stop-color="#45A4DD"/>
<stop offset="0.79" stop-color="#38B4EA"/>
<stop offset="0.99" stop-color="#27CAFD"/>
<stop offset="1" stop-color="#26CCFF"/>
</linearGradient>
<linearGradient id="paint2_linear_752_158" x1="52.6271" y1="45.4413" x2="79.1204" y2="135.751" gradientUnits="userSpaceOnUse">
<stop stop-color="white"/>
<stop offset="0.19" stop-color="#FCFEFF"/>
<stop offset="0.33" stop-color="#F2FCFF"/>
<stop offset="0.46" stop-color="#E2F8FF"/>
<stop offset="0.57" stop-color="#CCF3FF"/>
<stop offset="0.68" stop-color="#AFECFF"/>
<stop offset="0.79" stop-color="#8BE3FF"/>
<stop offset="0.89" stop-color="#61D9FF"/>
<stop offset="0.98" stop-color="#31CEFF"/>
<stop offset="1" stop-color="#26CCFF"/>
</linearGradient>
<linearGradient id="paint3_linear_752_158" x1="116.858" y1="58.7445" x2="-2.89653" y2="131.572" gradientUnits="userSpaceOnUse">
<stop stop-color="white"/>
<stop offset="0.25" stop-color="#FCFEFF"/>
<stop offset="0.39" stop-color="#F4FCFF"/>
<stop offset="0.51" stop-color="#E6F9FF"/>
<stop offset="0.61" stop-color="#D2F4FF"/>
<stop offset="0.7" stop-color="#B8EEFF"/>
<stop offset="0.79" stop-color="#98E6FF"/>
<stop offset="0.87" stop-color="#72DEFF"/>
<stop offset="0.95" stop-color="#47D3FF"/>
<stop offset="1" stop-color="#26CCFF"/>
</linearGradient>
<linearGradient id="paint4_linear_752_158" x1="111.171" y1="59.5794" x2="16.3519" y2="159.423" gradientUnits="userSpaceOnUse">
<stop stop-color="white"/>
<stop offset="0.12" stop-color="#D6F5FF" stop-opacity="0.6889"/>
<stop offset="0.3" stop-color="#A1E9FF" stop-opacity="0.3721"/>
<stop offset="0.47" stop-color="#75DEFF" stop-opacity="0.1849"/>
<stop offset="0.63" stop-color="#53D6FF" stop-opacity="0.0841"/>
<stop offset="0.78" stop-color="#3AD0FF" stop-opacity="0.0324"/>
<stop offset="0.91" stop-color="#2BCDFF" stop-opacity="0.0144"/>
<stop offset="1" stop-color="#26CCFF" stop-opacity="0.1"/>
</linearGradient>
<linearGradient id="paint5_linear_752_158" x1="37.3096" y1="41.1904" x2="111.39" y2="161.295" gradientUnits="userSpaceOnUse">
<stop stop-color="white"/>
<stop offset="0.2" stop-color="#FCFEFF"/>
<stop offset="0.34" stop-color="#F2FCFF"/>
<stop offset="0.46" stop-color="#E3F8FF"/>
<stop offset="0.58" stop-color="#CCF3FF"/>
<stop offset="0.68" stop-color="#B0ECFF"/>
<stop offset="0.79" stop-color="#8CE4FF"/>
<stop offset="0.88" stop-color="#62DAFF"/>
<stop offset="0.98" stop-color="#33CFFF"/>
<stop offset="1" stop-color="#26CCFF"/>
</linearGradient>
<linearGradient id="paint6_linear_752_158" x1="98.1105" y1="75.346" x2="35.5687" y2="48.2503" gradientUnits="userSpaceOnUse">
<stop stop-color="#C0B2D7"/>
<stop offset="0.22" stop-color="#BDB2D7"/>
<stop offset="0.38" stop-color="#B3B4DA"/>
<stop offset="0.52" stop-color="#A3B6DE"/>
<stop offset="0.65" stop-color="#8DBAE4"/>
<stop offset="0.78" stop-color="#70BFEB"/>
<stop offset="0.89" stop-color="#4DC5F4"/>
<stop offset="1" stop-color="#26CCFF"/>
</linearGradient>
<linearGradient id="paint7_linear_752_158" x1="81.2639" y1="80.92" x2="47.3854" y2="65.2082" gradientUnits="userSpaceOnUse">
<stop stop-color="#C0B2D7"/>
<stop offset="0.22" stop-color="#BDB2D7"/>
<stop offset="0.38" stop-color="#B3B4DA"/>
<stop offset="0.52" stop-color="#A3B6DE"/>
<stop offset="0.65" stop-color="#8DBAE4"/>
<stop offset="0.78" stop-color="#70BFEB"/>
<stop offset="0.89" stop-color="#4DC5F4"/>
<stop offset="1" stop-color="#26CCFF"/>
</linearGradient>
<linearGradient id="paint8_linear_752_158" x1="96.5809" y1="105.702" x2="21.7299" y2="58.3491" gradientUnits="userSpaceOnUse">
<stop stop-color="#C0B2D7"/>
<stop offset="0.22" stop-color="#BDB2D7"/>
<stop offset="0.38" stop-color="#B3B4DA"/>
<stop offset="0.52" stop-color="#A3B6DE"/>
<stop offset="0.65" stop-color="#8DBAE4"/>
<stop offset="0.78" stop-color="#70BFEB"/>
<stop offset="0.89" stop-color="#4DC5F4"/>
<stop offset="1" stop-color="#26CCFF"/>
</linearGradient>
<linearGradient id="paint9_linear_752_158" x1="95.8513" y1="49.3332" x2="100.437" y2="65.2644" gradientUnits="userSpaceOnUse">
<stop stop-color="#EF3B24"/>
<stop offset="0.05" stop-color="#EF3F23"/>
<stop offset="0.46" stop-color="#F26422"/>
<stop offset="0.79" stop-color="#F47A22"/>
<stop offset="1" stop-color="#F58322"/>
</linearGradient>
<clipPath id="clip0_752_158">
<rect width="86.7128" height="97.4301" fill="white" transform="translate(26.8799 40.5058) rotate(3.94749)"/>
</clipPath>
</defs>
</svg>
